<?xml version="1.0" encoding="UTF-8" standalone="no"?>
<!DOCTYPE svg PUBLIC "-//W3C//DTD SVG 1.1//EN" "http://www.w3.org/Graphics/SVG/1.1/DTD/svg11.dtd">
<svg width="100%" height="100%" viewBox="0 0 1024 600" version="1.1" xmlns="http://www.w3.org/2000/svg" xmlns:xlink="http://www.w3.org/1999/xlink" xml:space="preserve" xmlns:serif="http://www.serif.com/" style="fill-rule:evenodd;clip-rule:evenodd;stroke-linecap:round;stroke-linejoin:round;stroke-miterlimit:1.5;">
    <rect x="0" y="0" width="223.721" height="600" style="fill:rgb(72,58,58);"/>
    <g transform="matrix(1,0,0,1,10,10)">
        <g transform="matrix(1,0,0,1,5.10796,35.7496)">
            <text x="23.881px" y="145.812px" style="font-family:'ArialMT', 'Arial', sans-serif;font-size:40px;fill:white;">User</text>
        </g>
        <g transform="matrix(0.0572984,0,0,0.0590971,143.979,168.039)">
            <g transform="matrix(1,0,0,1,-224,-256)">
                <path d="M313.6,304C284.9,304 271.1,320 224,320C176.9,320 163.2,304 134.4,304C60.2,304 0,364.2 0,438.4L0,464C0,490.5 21.5,512 48,512L400,512C426.5,512 448,490.5 448,464L448,438.4C448,364.2 387.8,304 313.6,304ZM400,464L48,464L48,438.4C48,390.8 86.8,352 134.4,352C149,352 172.7,368 224,368C275.7,368 298.9,352 313.6,352C361.2,352 400,390.8 400,438.4L400,464ZM224,288C303.5,288 368,223.5 368,144C368,64.5 303.5,0 224,0C144.5,0 80,64.5 80,144C80,223.5 144.5,288 224,288ZM224,48C276.9,48 320,91.1 320,144C320,196.9 276.9,240 224,240C171.1,240 128,196.9 128,144C128,91.1 171.1,48 224,48Z" style="fill:rgb(255,254,254);fill-rule:nonzero;"/>
            </g>
        </g>
    </g>
    <g transform="matrix(1,0,0,1,11.0312,160.925)">
        <text x="23.881px" y="145.812px" style="font-family:'ArialMT', 'Arial', sans-serif;font-size:40px;fill:white;">Admin</text>
    </g>
    <g transform="matrix(0.0776114,0,0,0.0776114,177.348,297.953)">
        <g transform="matrix(1,0,0,1,-224,-256)">
            <clipPath id="_clip1">
                <rect x="0" y="0" width="448" height="512"/>
            </clipPath>
            <g clip-path="url(#_clip1)">
                <path d="M439.39,362.29C420.07,341.53 383.92,310.3 383.92,208C383.92,130.3 329.44,68.1 255.98,52.84L255.98,32C255.98,14.33 241.66,0 224,0C206.34,0 192.02,14.33 192.02,32L192.02,52.84C118.56,68.1 64.08,130.3 64.08,208C64.08,310.3 27.93,341.53 8.61,362.29C2.61,368.74 -0.05,376.45 0,384C0.11,400.4 12.98,416 32.1,416L415.9,416C435.02,416 447.9,400.4 448,384C448.05,376.45 445.39,368.73 439.39,362.29ZM67.53,368C88.75,340.03 111.95,293.67 112.06,208.58C112.06,208.38 112,208.2 112,208C112,146.14 162.14,96 224,96C285.86,96 336,146.14 336,208C336,208.2 335.94,208.38 335.94,208.58C336.05,293.68 359.25,340.04 380.47,368L67.53,368ZM224,512C259.32,512 287.97,483.35 287.97,448L160.03,448C160.03,483.35 188.68,512 224,512Z" style="fill:rgb(255,250,250);fill-rule:nonzero;"/>
            </g>
        </g>
    </g>
    <rect x="223.721" y="0" width="800.279" height="93.458" style="fill:white;"/>
    <rect x="223.721" y="93.458" width="800.279" height="506.542" style="fill:rgb(239,239,239);"/>
    <g transform="matrix(1.15144,0,0,1.46519,-45.9952,-61.467)">
        <path d="M910.967,137.051C910.967,128.697 902.336,121.914 891.705,121.914L262.611,121.914C251.98,121.914 243.349,128.697 243.349,137.051L243.349,382.276C243.349,390.63 251.98,397.413 262.611,397.413L891.705,397.413C902.336,397.413 910.967,390.63 910.967,382.276L910.967,137.051Z" style="fill:white;"/>
    </g>
    <g transform="matrix(3.58474,0,0,1,-696.613,0)">
        <path d="M460.478,207.113C460.478,204.866 459.969,203.042 459.343,203.042L270.645,203.042C270.018,203.042 269.509,204.866 269.509,207.113L269.509,287.129C269.509,289.375 270.018,291.199 270.645,291.199L459.343,291.199C459.969,291.199 460.478,289.375 460.478,287.129L460.478,207.113Z" style="fill-opacity:0;stroke:rgb(20,20,20);stroke-width:0.38px;"/>
    </g>
    <g transform="matrix(3.58474,0,0,1,-696.613,123.52)">
        <path d="M460.478,207.113C460.478,204.866 459.969,203.042 459.343,203.042L270.645,203.042C270.018,203.042 269.509,204.866 269.509,207.113L269.509,287.129C269.509,289.375 270.018,291.199 270.645,291.199L459.343,291.199C459.969,291.199 460.478,289.375 460.478,287.129L460.478,207.113Z" style="fill-opacity:0;stroke:rgb(20,20,20);stroke-width:0.38px;"/>
    </g>
    <rect x="-69.672" y="233.487" width="293.394" height="1.462" style="fill:white;"/>
    <g transform="matrix(1,0,0,1,0,-120)">
        <rect x="-69.672" y="233.487" width="293.394" height="1.462" style="fill:white;"/>
    </g>
    <g transform="matrix(1,0,0,1,0,119)">
        <rect x="-69.672" y="233.487" width="293.394" height="1.462" style="fill:white;"/>
    </g>
    <g transform="matrix(1,0,0,1,236.115,-82.2717)">
        <text x="23.881px" y="145.812px" style="font-family:'ArialMT', 'Arial', sans-serif;font-size:40px;fill:rgb(40,15,15);">User</text>
    </g>
    <text x="269.509px" y="162.919px" style="font-family:'ArialMT', 'Arial', sans-serif;font-size:20px;fill:rgb(56,36,36);">Favorite Colors</text>
    <rect x="234.205" y="180.546" width="768.72" height="2.148" style="fill:rgb(40,15,15);"/>
    <rect x="234.205" y="462.324" width="768.72" height="3.039" style="fill:rgb(40,15,15);"/>
    <g transform="matrix(1,0,0,1,10.2109,12.9766)">
        <text x="294.213px" y="241.665px" style="font-family:'ArialMT', 'Arial', sans-serif;font-size:25px;fill:rgb(56,36,36);">Red (#)</text>
    </g>
    <g transform="matrix(1,0,0,1,10.2109,136.496)">
        <text x="294.213px" y="241.665px" style="font-family:'ArialMT', 'Arial', sans-serif;font-size:25px;fill:rgb(56,36,36);">Blue (#)</text>
    </g>
    <g transform="matrix(0.0886398,0,0,0.0886398,852.008,248.5)">
        <g transform="matrix(1,0,0,1,-256,-256)">
            <path d="M256,8C119.033,8 8,119.033 8,256C8,392.967 119.033,504 256,504C392.967,504 504,392.967 504,256C504,119.033 392.967,8 256,8ZM256,56C366.532,56 456,145.451 456,256C456,366.532 366.549,456 256,456C145.468,456 56,366.549 56,256C56,145.468 145.451,56 256,56M396.204,186.267L373.668,163.549C369.001,158.844 361.403,158.813 356.698,163.481L215.346,303.697L155.554,243.42C150.887,238.715 143.289,238.684 138.584,243.351L115.865,265.887C111.16,270.554 111.129,278.152 115.797,282.858L206.578,374.374C211.245,379.079 218.843,379.11 223.548,374.442L396.137,203.238C400.841,198.57 400.871,190.972 396.204,186.267Z" style="fill:rgb(81,227,106);fill-rule:nonzero;"/>
        </g>
    </g>
    <g transform="matrix(0.0832496,0,0,0.0832496,913.569,247.121)">
        <g transform="matrix(1,0,0,1,-256,-256)">
            <path d="M256,8C119,8 8,119 8,256C8,393 119,504 256,504C393,504 504,393 504,256C504,119 393,8 256,8ZM256,456C145.5,456 56,366.5 56,256C56,145.5 145.5,56 256,56C366.5,56 456,145.5 456,256C456,366.5 366.5,456 256,456ZM357.8,193.8L295.6,256L357.8,318.2C362.5,322.9 362.5,330.5 357.8,335.2L335.2,357.8C330.5,362.5 322.9,362.5 318.2,357.8L256,295.6L193.8,357.8C189.1,362.5 181.5,362.5 176.8,357.8L154.2,335.2C149.5,330.5 149.5,322.9 154.2,318.2L216.4,256L154.2,193.8C149.5,189.1 149.5,181.5 154.2,176.8L176.8,154.2C181.5,149.5 189.1,149.5 193.8,154.2L256,216.4L318.2,154.2C322.9,149.5 330.5,149.5 335.2,154.2L357.8,176.8C362.5,181.5 362.5,189.1 357.8,193.8Z" style="fill:rgb(150,29,29);fill-rule:nonzero;"/>
        </g>
    </g>
    <g transform="matrix(0.0886398,0,0,0.0886398,850.504,370.64)">
        <g transform="matrix(1,0,0,1,-256,-256)">
            <path d="M256,8C119.033,8 8,119.033 8,256C8,392.967 119.033,504 256,504C392.967,504 504,392.967 504,256C504,119.033 392.967,8 256,8ZM256,56C366.532,56 456,145.451 456,256C456,366.532 366.549,456 256,456C145.468,456 56,366.549 56,256C56,145.468 145.451,56 256,56M396.204,186.267L373.668,163.549C369.001,158.844 361.403,158.813 356.698,163.481L215.346,303.697L155.554,243.42C150.887,238.715 143.289,238.684 138.584,243.351L115.865,265.887C111.16,270.554 111.129,278.152 115.797,282.858L206.578,374.374C211.245,379.079 218.843,379.11 223.548,374.442L396.137,203.238C400.841,198.57 400.871,190.972 396.204,186.267Z" style="fill:rgb(81,227,106);fill-rule:nonzero;"/>
        </g>
    </g>
    <g transform="matrix(0.0832496,0,0,0.0832496,912.065,369.26)">
        <g transform="matrix(1,0,0,1,-256,-256)">
            <path d="M256,8C119,8 8,119 8,256C8,393 119,504 256,504C393,504 504,393 504,256C504,119 393,8 256,8ZM256,456C145.5,456 56,366.5 56,256C56,145.5 145.5,56 256,56C366.5,56 456,145.5 456,256C456,366.5 366.5,456 256,456ZM357.8,193.8L295.6,256L357.8,318.2C362.5,322.9 362.5,330.5 357.8,335.2L335.2,357.8C330.5,362.5 322.9,362.5 318.2,357.8L256,295.6L193.8,357.8C189.1,362.5 181.5,362.5 176.8,357.8L154.2,335.2C149.5,330.5 149.5,322.9 154.2,318.2L216.4,256L154.2,193.8C149.5,189.1 149.5,181.5 154.2,176.8L176.8,154.2C181.5,149.5 189.1,149.5 193.8,154.2L256,216.4L318.2,154.2C322.9,149.5 330.5,149.5 335.2,154.2L357.8,176.8C362.5,181.5 362.5,189.1 357.8,193.8Z" style="fill:rgb(150,29,29);fill-rule:nonzero;"/>
        </g>
    </g>
    <path d="M954.084,146.116C954.084,141.656 950.463,138.035 946.003,138.035L858.585,138.035C854.125,138.035 850.504,141.656 850.504,146.116L850.504,162.278C850.504,166.738 854.125,170.359 858.585,170.359L946.003,170.359C950.463,170.359 954.084,166.738 954.084,162.278L954.084,146.116Z" style="fill:rgb(24,81,210);"/>
    <g transform="matrix(1,0,0,1,238.943,8.08106)">
        <text x="645.193px" y="151.645px" style="font-family:'ArialMT', 'Arial', sans-serif;font-size:19px;fill:rgb(254,254,254);">add</text>
    </g>
    <g transform="matrix(1,0,0,1,0,338.332)">
        <path d="M954.084,146.116C954.084,141.656 950.463,138.035 946.003,138.035L858.585,138.035C854.125,138.035 850.504,141.656 850.504,146.116L850.504,162.278C850.504,166.738 854.125,170.359 858.585,170.359L946.003,170.359C950.463,170.359 954.084,166.738 954.084,162.278L954.084,146.116Z" style="fill:rgb(24,81,210);"/>
    </g>
    <g transform="matrix(1,0,0,1,235.165,346.413)">
        <text x="645.193px" y="151.645px" style="font-family:'ArialMT', 'Arial', sans-serif;font-size:19px;fill:rgb(254,254,254);">share</text>
    </g>
</svg>
